<svg xmlns="http://www.w3.org/2000/svg" width="670" height="570" viewBox="0 0 670 570">
  <defs>
    <style>
      .cls-1 {
        fill: #f2f2f2;
      }

      .cls-1, .cls-10, .cls-11, .cls-12, .cls-13, .cls-2, .cls-3, .cls-4, .cls-5, .cls-6, .cls-7, .cls-8, .cls-9 {
        fill-rule: evenodd;
      }

      .cls-2 {
        fill: #ff5d5d;
      }

      .cls-3 {
        fill: #3f3d56;
      }

      .cls-13, .cls-4, .cls-6 {
        fill: #984e43;
      }

      .cls-4 {
        opacity: 0.1;
      }

      .cls-5 {
        fill: #e8a39a;
      }

      .cls-7 {
        fill: #374146;
      }

      .cls-8 {
        fill: #ffb9b9;
      }

      .cls-9 {
        fill: #575a89;
      }

      .cls-10 {
        fill: #d0cde1;
      }

      .cls-11 {
        fill: #f5aead;
      }

      .cls-12 {
        fill: #a8a8a8;
      }

      .cls-13 {
        opacity: 0.2;
      }

      .cls-14 {
        fill: #abc6c4;
      }

      .cls-15 {
        font-size: 35px;
      }

      .cls-15, .cls-16, .cls-17 {
        fill: #fff;
      }

      .cls-15, .cls-17 {
        font-family: FoundersGrotesk;
        font-weight: 700;
      }

      .cls-16 {
        font-size: 16px;
        font-family: OpenSans;
        font-weight: 600;
      }

      .cls-17 {
        font-size: 45px;
      }
    </style>
  </defs>
  <path id="Vector" class="cls-1" d="M1853.06,6234.12c0,133.17-107.94,241.12-241.08,241.12s-241.09-107.95-241.09-241.12S1478.83,5993,1611.98,5993,1853.06,6100.95,1853.06,6234.12Z" transform="translate(-1238 -5913)"/>
  <path id="Vector-2" data-name="Vector" class="cls-2" d="M1550.63,6332.88l-54.86-68.37c4.17,51.59,24.95,105.72,26.28,109.16C1533.63,6362.05,1543.02,6348.04,1550.63,6332.88Z" transform="translate(-1238 -5913)"/>
  <path id="Vector-3" data-name="Vector" class="cls-2" d="M1490.29,6246.9l0.71,0.35q-5.415-5.25-11.14-10l4.27,65.27-0.33-.14q2.955,3.42,5.72,6.85Z" transform="translate(-1238 -5913)"/>
  <path id="Vector-4" data-name="Vector" class="cls-2" d="M1508.84,6336.63c8.85,14.71,15.12,29.3,18.76,43.6,1.59-12.7,6.42-64.74-14.76-104.89Z" transform="translate(-1238 -5913)"/>
  <path id="Vector-5" data-name="Vector" class="cls-2" d="M1490.94,6311.01c0.57,0.71,1.14,1.42,1.69,2.14a239.3,239.3,0,0,1,14.88,21.29l3.96-60.72,0.69,0.36a94.785,94.785,0,0,0-13.88-19.44q-3.21-3.435-6.57-6.7Z" transform="translate(-1238 -5913)"/>
  <path id="Vector-6" data-name="Vector" class="cls-3" d="M1908,6402.84c0,28.92-148.74,80.16-332.22,80.16s-332.22-51.24-332.22-80.16,148.74-24.56,332.22-24.56S1908,6373.92,1908,6402.84Z" transform="translate(-1238 -5913)"/>
  <path id="Vector-7" data-name="Vector" class="cls-4" d="M1908,6402.84c0,28.92-148.74,80.16-332.22,80.16s-332.22-51.24-332.22-80.16,148.74-24.56,332.22-24.56S1908,6373.92,1908,6402.84Z" transform="translate(-1238 -5913)"/>
  <path id="Vector-8" data-name="Vector" class="cls-5" d="M1908,6402.84c0,28.92-148.74,52.36-332.22,52.36s-332.22-23.44-332.22-52.36,148.74-52.36,332.22-52.36S1908,6373.92,1908,6402.84Z" transform="translate(-1238 -5913)"/>
  <path id="Vector-9" data-name="Vector" class="cls-4" d="M1633.38,6348.11c0,31.51-43.91,21.76-97.67,21.76s-97.02,9.75-97.02-21.76,43.9-38.36,97.66-38.36S1633.38,6316.61,1633.38,6348.11Z" transform="translate(-1238 -5913)"/>
  <path id="Vector-10" data-name="Vector" class="cls-6" d="M1633.38,6340.36c0,31.5-43.91,21.76-97.67,21.76s-97.02,9.74-97.02-21.76,43.9-38.36,97.66-38.36S1633.38,6308.85,1633.38,6340.36Z" transform="translate(-1238 -5913)"/>
  <path id="Vector-11" data-name="Vector" class="cls-7" d="M1460.43,6253.66a14.335,14.335,0,0,1,3.87-1.94,98.4,98.4,0,0,1,27.26-5.93c8.11-.58,16.9.11,23.23,5.2a7.9,7.9,0,0,1,2.35,2.75c0.8,1.72.56,3.71,0.3,5.59a6.438,6.438,0,0,1-.54,2.11c-0.85,1.62-2.95,2.19-4.77,1.99s-3.53-.96-5.33-1.32a23.753,23.753,0,0,0-3.37-.34l-11.27-.61c-7.01-.38-14.11-0.75-20.99.66a21.048,21.048,0,0,0-6.06,2.09c-1.57.88-2.63,2.15-4.09,0.52C1458.46,6261.57,1457.05,6256.31,1460.43,6253.66Z" transform="translate(-1238 -5913)"/>
  <path id="Vector-12" data-name="Vector" class="cls-1" d="M1477.9,6258.65s15.16-6.8,20.91,1.05-3.14,4.7-3.14,4.7l-9.93,3.14-10.98-2.09Z" transform="translate(-1238 -5913)"/>
  <path id="Vector-13" data-name="Vector" class="cls-8" d="M1478.68,6253.68s2.09,9.94.52,12.55,8.89,6.28,8.89,6.28l9.93-4.19s-2.61-16.21,0-19.34Z" transform="translate(-1238 -5913)"/>
  <path id="Vector-14" data-name="Vector" class="cls-4" d="M1478.68,6253.68s2.09,9.94.52,12.55,8.89,6.28,8.89,6.28l9.93-4.19s-2.61-16.21,0-19.34Z" transform="translate(-1238 -5913)"/>
  <path id="Vector-15" data-name="Vector" class="cls-9" d="M1468.88,6373.14a56.74,56.74,0,0,1,3.46,9.06,0.57,0.57,0,0,0,.11.28,0.556,0.556,0,0,0,.21.22,0.744,0.744,0,0,0,.29.12,0.762,0.762,0,0,0,.3-0.02l9.3-.01c1.15,0,2.69-.37,2.68-1.51-0.01-.81-0.83-1.31-1.45-1.84-1.7-1.45-2.14-3.84-2.85-5.97a20.211,20.211,0,0,0-7.54-10.12,4.2,4.2,0,0,0-1.61-.8,4.348,4.348,0,0,0-1.76.1c-1.64.32-7.73,1.45-6.58,3.83,0.5,1.02,2.33,2.08,3.1,3.04A21.309,21.309,0,0,1,1468.88,6373.14Z" transform="translate(-1238 -5913)"/>
  <path id="Vector-16" data-name="Vector" class="cls-9" d="M1501.22,6362.35a21.636,21.636,0,0,1-1.09,2.01c-1.35,2.23-2.94,4.3-4.19,6.58a10.781,10.781,0,0,0-1.53,4.57,5.1,5.1,0,0,0,1.77,4.32,6.537,6.537,0,0,0,4.88.83,23.351,23.351,0,0,1,5.04-.59c-0.57-3.23,2.15-6.06,2.83-9.27,0.19-.9.22-1.83,0.47-2.71a13.95,13.95,0,0,1,1.05-2.33,29.64,29.64,0,0,0,2.84-8.38c0.07-.35-8.26-0.41-9.04-0.24C1501.81,6357.67,1502.17,6360.33,1501.22,6362.35Z" transform="translate(-1238 -5913)"/>
  <path id="Vector-17" data-name="Vector" class="cls-7" d="M1437.02,6311.69c-2.38,3.73-1.83,8.66-.16,12.75s4.32,7.7,6.14,11.73c1.16,2.56,1.98,5.28,3.28,7.78,1.62,3.09,3.98,5.81,5.07,9.12,0.69,2.12.85,4.43,1.97,6.35a19.356,19.356,0,0,0,2.31,2.87,26.547,26.547,0,0,1,5.32,9.5c1.02-3.05,4.09-5.05,7.24-5.71s6.42-.21,9.6.24a40.466,40.466,0,0,1-4.63-8.65c-1.02-3-1.33-6.19-2.02-9.28-1.41-6.35-4.44-12.2-7.43-17.98l15.39-1.22a61.567,61.567,0,0,1,7.56-.28c3.97,0.19,7.86,1.16,11.81,1.61s8.13,0.34,11.66-1.51a55.8,55.8,0,0,0-10.02,32.98,12.772,12.772,0,0,1,5.11-2.39,12.754,12.754,0,0,1,10.71,2.53,12.676,12.676,0,0,1,3.5,4.42c6.04-8.24,5.32-19.72,10.1-28.75,0.98-1.85,2.18-3.58,3.24-5.39a80.268,80.268,0,0,0,5.14-11.34c1.33-3.42,2.68-7.23,1.4-10.67a11.1,11.1,0,0,0-2.29-3.51,15.385,15.385,0,0,0-10.7-5.39c-6.29-.14-11.5,4.53-17.02,7.56a39.29,39.29,0,0,1-21.51,4.46c-7.59-.54-14.83-3.03-22.07-5.21a101.6,101.6,0,0,0-11.01-2.84c-3.1-.59-6.05.06-9.11,0.85C1442.27,6307.18,1438.93,6308.7,1437.02,6311.69Z" transform="translate(-1238 -5913)"/>
  <path id="Vector-18" data-name="Vector" class="cls-8" d="M1502.73,6243.75a15.688,15.688,0,0,1-15.68,15.68,14.479,14.479,0,0,1-2.79-.25,15.706,15.706,0,0,1-12.38-11.42,15.686,15.686,0,1,1,30.85-4.01h0Z" transform="translate(-1238 -5913)"/>
  <path id="Vector-19" data-name="Vector" class="cls-1" d="M1477.9,6258.65a18.752,18.752,0,0,1,3.92,2.35c1.04,1.05,4.18,6.8,9.41,3.14s5.75-5.75,7.32-5.75,3.66,3.14,3.66,3.14l14.37,43.13a60.141,60.141,0,0,1-13.33,11.25c-8.36,5.22-18.3,7.84-23,5.75s-13.59-3.66-15.16-7.85-4.18-16.73-4.18-16.73l7.31-31.89Z" transform="translate(-1238 -5913)"/>
  <path id="Vector-20" data-name="Vector" class="cls-7" d="M1475.88,6302.28a20.6,20.6,0,0,0,1.4-7.96,49.318,49.318,0,0,0-.21-8.06c-0.47-3.49-1.6-6.86-2.32-10.32a43.871,43.871,0,0,1-.92-9.21,7.485,7.485,0,0,1,.88-4.08,13.487,13.487,0,0,0,1.72-2.39c0.65-1.82-.97-3.72-2.75-4.47a10.816,10.816,0,0,0-6.77-.27,32.648,32.648,0,0,0-6.37,2.6,15,15,0,0,0-4.16,2.69c-1.62,1.68-2.33,4.02-2.91,6.28a12.933,12.933,0,0,0-.52,5.54c0.57,2.98,3,5.23,4.3,7.97,1.5,3.19,1.4,6.9.8,10.38s-1.66,6.87-1.99,10.38,0.18,7.28,2.38,10.04c0.89,1.12,3.32,3.78,4.96,3.48,1.29-.24,3.16-3.07,4.2-3.97C1470.6,6308.31,1474.16,6306,1475.88,6302.28Z" transform="translate(-1238 -5913)"/>
  <path id="Vector-21" data-name="Vector" class="cls-7" d="M1503.27,6256.94c0.04,2.92-1.24,5.69-2.75,8.19s-3.29,4.85-4.4,7.55a17.244,17.244,0,0,0-.81,10.64,33.572,33.572,0,0,0,1.15,3.56l2.87,7.86a13.32,13.32,0,0,0,1.66,3.49,11.624,11.624,0,0,0,2.26,2.17,21,21,0,0,0,7.36,3.84,12.45,12.45,0,0,0,8.19-.46,118.728,118.728,0,0,1,5.09-31.42c0.57-1.88,1.2-3.86.76-5.78-0.5-2.15-2.22-3.76-3.86-5.23-5.02-4.51-10.53-9.24-17.24-9.84C1499.67,6251.16,1503.24,6254.84,1503.27,6256.94Z" transform="translate(-1238 -5913)"/>
  <path id="Vector-22" data-name="Vector" class="cls-8" d="M1468.96,6317.74c0.4,0.78.65,1.62,1.04,2.4a13.368,13.368,0,0,0,2.13,2.87c3.5,3.88,7.77,7.74,12.98,7.97a3.442,3.442,0,0,0,1.53-.19,2.937,2.937,0,0,0,1.11-.96,3.057,3.057,0,0,0,.52-1.37c0.37-2.02-.52-4.04-1.42-5.9-1.93-4.01-4.12-8.13-7.75-10.72a14.513,14.513,0,0,0-12.55-1.89c-1.89.58-5.03,1.6-2.52,3.32C1465.93,6314.58,1467.86,6315.58,1468.96,6317.74Z" transform="translate(-1238 -5913)"/>
  <path id="Vector-23" data-name="Vector" class="cls-8" d="M1491.5,6266.59a11.694,11.694,0,0,0-2.45-3.96,9.084,9.084,0,0,0-3.75-1.9,20.885,20.885,0,0,0-5.5-.79c-2.21-.01-4.78.58-5.72,2.59-0.75,1.59-.17,3.48.58,5.07a5.013,5.013,0,0,0,1.55,2.09,8.44,8.44,0,0,0,3.33.84,15.319,15.319,0,0,1,4.9,2.23l3.88,2.34,6.66,4.03c-0.17-.11-0.11-4.68-0.31-5.43C1494.01,6271.29,1492.52,6268.87,1491.5,6266.59Z" transform="translate(-1238 -5913)"/>
  <path id="Vector-24" data-name="Vector" class="cls-7" d="M1472.1,6381.01c-1.56,2.12-1.25,5.15-2.63,7.39-1.2,1.94-3.45,2.95-4.95,4.67a13.3,13.3,0,0,0-1.27,1.83c-1.39,2.33-2.52,5.31-1.15,7.65,1.1,1.88,3.41,2.62,5.53,3.12a20.454,20.454,0,0,0,8.18.66c2.71-.49,5.36-2.15,6.33-4.73a17.987,17.987,0,0,1,.67-1.91c1.47-2.89,6.08-2.92,7.59-5.8,1.05-2.01.08-4.44-.88-6.5l-2.96-6.28c-0.98-2.08-4.95-.88-7.02-1.38C1476.83,6379.08,1474.04,6378.36,1472.1,6381.01Z" transform="translate(-1238 -5913)"/>
  <path id="Vector-25" data-name="Vector" class="cls-7" d="M1494.94,6375.62a8.477,8.477,0,0,0-2.67,3.66,40.264,40.264,0,0,0-2.45,10.72,12.694,12.694,0,0,0-.08,4.39c0.63,2.98,3.32,5.17,6.22,6.08s6.02,0.77,9.06.62a6.32,6.32,0,0,0,2.84-.58,4.41,4.41,0,0,0,1.87-4.54,13.075,13.075,0,0,0-2.13-4.74,13.075,13.075,0,0,1-2.13-4.74c-0.44-2.9.81-7.15-.97-9.78S1497.33,6373.95,1494.94,6375.62Z" transform="translate(-1238 -5913)"/>
  <path id="Vector-26" data-name="Vector" class="cls-7" d="M1502.34,6235.57a4.01,4.01,0,0,0-1.73-2.25,9.1,9.1,0,0,0-.37-2.98c-0.95-2.8-3.2-2.64-5.32-3.88-0.92-.54-0.86-1.02-1.34-1.9a7.125,7.125,0,0,0-2.72-2.78,9.852,9.852,0,0,0-4.41-1.87c-3.39-.23-5.98,2.96-9.22,3.98-1.43.45-2.96,0.47-4.39,0.89s-2.87,1.45-3.08,2.93c-0.1.68,0.07,1.38-.03,2.07-0.19,1.36-1.39,2.31-2.18,3.42-1.77,2.47-1.57,5.96-.15,8.65a11.628,11.628,0,0,0,1.01,1.6,9.656,9.656,0,0,0,1.08,3.63,18.078,18.078,0,0,0,6.37,6.37,15.492,15.492,0,0,1-.38-2.72,1.988,1.988,0,0,1,.12-0.9,3.339,3.339,0,0,1,1.6-1.07,4.015,4.015,0,0,0,1.67-3.5c0.04-1.36-.25-2.72-0.11-4.06a2.268,2.268,0,0,1,.76-1.64,2.726,2.726,0,0,1,1.43-.34c2.42-.1,4.94-0.14,7.07-1.28a10.6,10.6,0,0,1,2.2-1.12c1.81-.47,3.66.8,4.7,2.35s1.56,3.4,2.53,5.01,2.62,3.03,4.48,2.84a0.815,0.815,0,0,0,.31-0.06,0.553,0.553,0,0,0,.35-0.66l0.1-7.11A10.78,10.78,0,0,0,1502.34,6235.57Z" transform="translate(-1238 -5913)"/>
  <path id="Vector-27" data-name="Vector" class="cls-7" d="M1452.7,6272.78c-1.5,2.21-3.22,4.33-4.04,6.87-0.49,1.49-.64,3.07-0.99,4.6-1.16,5.09-4.53,9.61-4.87,14.82a7.042,7.042,0,0,0,.49,3.4c0.97,2.11,3.28,3.21,5.49,3.91s4.57,1.2,6.33,2.7a19.236,19.236,0,0,1,2.4,2.78,23.229,23.229,0,0,0,11.11,7.6c-0.34-2.38-.51-5.24,1.4-6.71a6.8,6.8,0,0,1,3.7-1.05l6.12-.53a78.119,78.119,0,0,0-13.43-10.46c-1.69-1.05-3.53-2.16-4.31-3.99a9.758,9.758,0,0,1-.49-3.68,89.892,89.892,0,0,0-1.15-13.6c-0.5-3.12-1.17-6.22-1.93-9.29-0.22-.86-1.49-4.73-3.05-3.82-0.36.21-.71,2.66-0.92,3.17a18.962,18.962,0,0,1-1.86,3.28h0Z" transform="translate(-1238 -5913)"/>
  <path id="Vector-28" data-name="Vector" class="cls-7" d="M1523.25,6264.44l2.5,5.2a12.452,12.452,0,0,1,1.58,7.04l0.15,15.61a23.157,23.157,0,0,1-.51,6.21,4.962,4.962,0,0,1-.87,1.86,5.7,5.7,0,0,1-1.48,1.19c-4.73,2.96-10.87,4.64-15.87,2.16a21.944,21.944,0,0,1-3.26-2.12,26.069,26.069,0,0,1-5.5-4.97,34.173,34.173,0,0,1-3.51-6.93,53.063,53.063,0,0,0-7.24-11.88,3.139,3.139,0,0,1-.9-1.78c-0.03-1.37,1.59-2.04,2.86-2.56,2.16-.89,4.2-2.61,4.56-4.92,4.6,6.03,9.67,12.4,16.92,14.6a0.682,0.682,0,0,0,.38.12,0.748,0.748,0,0,0,.39-0.09,0.779,0.779,0,0,0,.29-0.28,0.868,0.868,0,0,0,.1-0.39c0.41-1.72.55-3.49,0.85-5.24a29.956,29.956,0,0,1,3.16-9.09C1518.7,6266.59,1521.49,6260.77,1523.25,6264.44Z" transform="translate(-1238 -5913)"/>
  <path id="Vector-29" data-name="Vector" class="cls-4" d="M1461.18,6279.49a23.945,23.945,0,0,1-2.3,10.69,8.633,8.633,0,0,0-.89,2.36c-0.28,1.75.72,3.46,1.87,4.82a19.8,19.8,0,0,0,8.47,5.9" transform="translate(-1238 -5913)"/>
  <path id="Vector-30" data-name="Vector" class="cls-4" d="M1515.5,6276.37a5.071,5.071,0,0,0,.25,3.11,31.6,31.6,0,0,1,1.14,9.08,0.286,0.286,0,0,1-.01.16,0.248,0.248,0,0,1-.08.14,0.339,0.339,0,0,1-.14.09,0.292,0.292,0,0,1-.16.01c-1.21.07-2.59,0.08-3.41-.81" transform="translate(-1238 -5913)"/>
  <path id="Vector-31" data-name="Vector" class="cls-4" d="M1802,6406.72c0,9.64-36.46,17.45-81.44,17.45s-81.44-7.81-81.44-17.45,36.46-17.45,81.44-17.45S1802,6397.08,1802,6406.72Z" transform="translate(-1238 -5913)"/>
  <path id="Vector-32" data-name="Vector" class="cls-8" d="M1761.28,6250.93l-5.82,5.82,5.82,5.81,5.82-11.63h-5.82Z" transform="translate(-1238 -5913)"/>
  <path id="Vector-33" data-name="Vector" class="cls-10" d="M1762.59,6200.48c1.63,0.67,2.41,2.5,3.02,4.15l7.55,20.28,1.47,3.95c0.72,1.93,1.44,3.87,2.05,5.84,0.39,1.25.73,2.51,1.02,3.79a9.969,9.969,0,0,1,.35,3.35,9.351,9.351,0,0,1-1.34,3.49,31.191,31.191,0,0,1-10.86,11.15,10.142,10.142,0,0,0-5.9-7.71l3.9-2.15a7.191,7.191,0,0,0,2.19-1.6,5.046,5.046,0,0,0,.79-1.75,4.91,4.91,0,0,0,.04-1.91,15.222,15.222,0,0,0-1.16-3.67,101.275,101.275,0,0,1-3.4-9.99,21.414,21.414,0,0,0-2.21-5.82c-1.02-1.59-2.5-2.86-3.42-4.51-1.41-2.51-1.38-5.6-.75-8.41,0.52-2.37,1.4-4.66,2.15-6.97C1758.66,6200.18,1760.84,6199.77,1762.59,6200.48Z" transform="translate(-1238 -5913)"/>
  <path id="Vector-34" data-name="Vector" class="cls-7" d="M1726.61,6146.3c-3,1.01-5.71,3.38-6.33,6.49-0.28,1.44-.11,2.94-0.35,4.39-0.56,3.36-3.19,5.92-5.62,8.3s-4.95,5.16-5.12,8.56c-0.2,3.72,2.5,7.21,2.03,10.91-0.54,4.3-5.08,7.08-6.2,11.27-0.75,2.79.17,5.8,1.68,8.27,2.88,4.7,7.8,7.89,13.04,9.6s10.82,2.07,16.33,2.13c6.71,0.07,13.99-.51,19.04-4.94a15.223,15.223,0,0,0,5.06-9.93c0.48-5.13-1.66-10.43-.19-15.37,0.93-3.11,3.26-5.94,2.92-9.17-0.34-3.15-3.1-5.38-4.98-7.93a32.134,32.134,0,0,1-3.89-7.96l-3.59-9.47c-0.7-1.86-1.48-3.82-3.05-5.04-2.94-2.29-7.67-1.84-11.11-1.37C1733.08,6145.48,1729.68,6145.26,1726.61,6146.3Z" transform="translate(-1238 -5913)"/>
  <path id="Vector-35" data-name="Vector" class="cls-11" d="M1729.39,6177.52s0.35,10.54-.7,11.59,4.21,8.08,4.21,8.08l9.49-.35,4.91-3.86-4.21-5.63s-1.76-9.13-.35-11.24S1729.39,6177.52,1729.39,6177.52Z" transform="translate(-1238 -5913)"/>
  <path id="Vector-36" data-name="Vector" class="cls-8" d="M1707.44,6258.84l5.97,13.35,4.56-5.62-9.13-11.94Z" transform="translate(-1238 -5913)"/>
  <path id="Vector-37" data-name="Vector" class="cls-8" d="M1691.46,6392.5l-2.46,13.7-4.22,5.98,2.46,1.4,4.22-.7,4.91-1.76,2.11-8.08,3.87-10.54h-10.89Z" transform="translate(-1238 -5913)"/>
  <path id="Vector-38" data-name="Vector" class="cls-8" d="M1736.41,6384.07l-1.4,19.68,3.51,2.81,5.62-4.92v-14.41Z" transform="translate(-1238 -5913)"/>
  <path id="Vector-39" data-name="Vector" class="cls-8" d="M1747.83,6168.91a12.645,12.645,0,1,1-12.65-12.64A12.645,12.645,0,0,1,1747.83,6168.91Z" transform="translate(-1238 -5913)"/>
  <path id="Vector-40" data-name="Vector" class="cls-10" d="M1744.94,6185.92a2.919,2.919,0,0,0-2.43-.05,18.178,18.178,0,0,0-2.23,1.17,10.343,10.343,0,0,1-6.01,1.09,2.127,2.127,0,0,1-.7-0.18,3.552,3.552,0,0,1-.64-0.52,3.72,3.72,0,0,0-5.15.44c-0.37.47-.63,1.02-1.03,1.45-1.05,1.12-2.79,1.17-4.32,1.17a39.807,39.807,0,0,0-9.49.87,17.345,17.345,0,0,0-8.33,4.41,6.455,6.455,0,0,0-1.48,2.11c-0.43,1.1-.37,2.32-0.75,3.43-0.42,1.24-1.36,2.25-1.74,3.5a13.922,13.922,0,0,1-.73,2.84c2.05,1.78,3.79,4.15,5.84,5.93,1.36,1.17,2.79,2.45,3.3,4.17a13.537,13.537,0,0,1,.3,3.24c0.25,5.19,3.07,9.91,6.22,14.05a16.365,16.365,0,0,0,3.07,3.26,13.464,13.464,0,0,0,5.3,2.13,52.063,52.063,0,0,0,10.95.69c3.78-.04,7.63-0.12,11.23-1.29a10.031,10.031,0,0,0,4.75-2.95c1.48-1.82,2.06-4.45,4.08-5.64a7.387,7.387,0,0,0,1.38-.82,3.567,3.567,0,0,0,.84-1.58,24.383,24.383,0,0,0,1.16-6.82,19.893,19.893,0,0,1,.28-4.15,14.45,14.45,0,0,1,1.51-3.44l4.19-7.59a5.293,5.293,0,0,0,.28-2.22,5.426,5.426,0,0,0-.9-2.85,24.322,24.322,0,0,0-12.09-10.59,4.475,4.475,0,0,1-1.14-.56,4.691,4.691,0,0,1-1.05-1.25C1748.3,6187.7,1746.95,6185.82,1744.94,6185.92Z" transform="translate(-1238 -5913)"/>
  <path id="Vector-41" data-name="Vector" class="cls-10" d="M1692.8,6227.25a30.219,30.219,0,0,0-1.81,6.23,15.129,15.129,0,0,0,1.37,8.64c2.25,4.65,6.69,7.79,9.83,11.89,2.91,3.81,4.64,8.38,7.16,12.46a3.193,3.193,0,0,1,.81-3.11,17.056,17.056,0,0,0,2.17-2.58,7.507,7.507,0,0,0,.67-2.45c0.37-2.53.58-5.28-.71-7.48-0.97-1.67-2.65-2.77-3.98-4.16a12.409,12.409,0,0,1-2.84-5,12.252,12.252,0,0,1-.29-5.74c0.25-1.31.72-2.57,1.07-3.87a42.554,42.554,0,0,0,.99-5.27l1.58-10.87c0.42-2.89.78-6.08-.86-8.5a3.562,3.562,0,0,0-1.28-1.22,4.369,4.369,0,0,0-1.37-.38c-1.72-.28-4.05-1.04-4.89.81-1.02,2.22-1.72,4.65-2.57,6.95Z" transform="translate(-1238 -5913)"/>
  <path id="Vector-42" data-name="Vector" class="cls-7" d="M1753.08,6233.2s-20.88,4.04-25.8,4.04h-8.78s-3.16,5.62-3.16,11.24-20.72,84.31-20.72,84.31-19.67,64.63,2.11,64.98,35.47,1.41,35.82-5.97,2.46-102.57,2.46-102.57l3.28,48.95a121.635,121.635,0,0,1-2.79,36.14c-1.58,6.63-1.33,13.91,6.53,15.37,15.11,2.81,34.07.36,34.07-4.91s-9.83-122.25-9.83-122.25-4.92-17.21-7.73-18.62S1753.08,6233.2,1753.08,6233.2Z" transform="translate(-1238 -5913)"/>
  <path id="Vector-43" data-name="Vector" class="cls-7" d="M1687.59,6411.47l7.73-2.81,5.27-13.35,5.62-.7s-3.16,6.68-4.92,7.73-4.56,9.84-4.56,9.84,1.4,3.51-5.27,4.91-11.59,2.46-11.59,2.46-0.71-1.4,2.45-4.92a82.969,82.969,0,0,0,6.86-9.42Z" transform="translate(-1238 -5913)"/>
  <path id="Vector-44" data-name="Vector" class="cls-7" d="M1735.01,6395.31l-1.41,10.54s3.87,5.62,4.92,5.62,6.68-4.91,6.68-4.91-0.36-5.27,0-6.68,1.05-8.08,0-8.43-1.06,7.83-1.06,7.83l-4.56,4.82-4.41-2.64Z" transform="translate(-1238 -5913)"/>
  <path id="Vector-45" data-name="Vector" class="cls-7" d="M1749.94,6161.54c0,4.07-6.14,7.37-13.7,7.37s-13.7-3.3-13.7-7.37,6.13-7.38,13.7-7.38S1749.94,6157.46,1749.94,6161.54Z" transform="translate(-1238 -5913)"/>
  <path id="Vector-46" data-name="Vector" class="cls-3" d="M1238,6306.3c0,41.38,25.96,74.87,58.04,74.87" transform="translate(-1238 -5913)"/>
  <path id="Vector-47" data-name="Vector" class="cls-2" d="M1296.03,6381.17c0-41.85,28.97-75.71,64.77-75.71" transform="translate(-1238 -5913)"/>
  <path id="Vector-48" data-name="Vector" class="cls-2" d="M1259.03,6310.05c0,39.31,16.55,71.12,37.01,71.12" transform="translate(-1238 -5913)"/>
  <path id="Vector-49" data-name="Vector" class="cls-3" d="M1296.03,6381.17c0-53.47,33.49-96.74,74.86-96.74" transform="translate(-1238 -5913)"/>
  <path id="Vector-50" data-name="Vector" class="cls-12" d="M1283.83,6381.7s8.23-.26,10.71-2.02,12.66-3.88,13.27-1.04,12.37,14.09,3.08,14.16-21.59-1.45-24.07-2.95S1283.83,6381.7,1283.83,6381.7Z" transform="translate(-1238 -5913)"/>
  <path id="Vector-51" data-name="Vector" class="cls-13" d="M1311.05,6391.81c-9.29.08-21.59-1.44-24.06-2.95-1.89-1.15-2.64-5.27-2.89-7.17-0.17.01-.27,0.01-0.27,0.01s0.52,6.64,2.99,8.15,14.78,3.03,24.07,2.95c2.68-.02,3.61-0.97,3.56-2.39C1314.07,6391.27,1313.05,6391.8,1311.05,6391.81Z" transform="translate(-1238 -5913)"/>
  <g>
    <circle class="cls-14" cx="321.5" cy="74.5" r="74.5"/>
    <text id="_5_" data-name="5+" class="cls-15" x="301.999" y="69.55">5+</text>
    <text id="Services" class="cls-16" x="290.001" y="98.205">Services</text>
  </g>
  <g>
    <circle class="cls-14" cx="349.5" cy="250.5" r="74.5"/>
    <text id="_5_2" data-name="5+" class="cls-15" x="330" y="245.552">5+</text>
    <text id="Services-2" data-name="Services" class="cls-16" x="318" y="274.207">Services</text>
  </g>
  <g>
    <circle class="cls-14" cx="129" cy="214" r="90"/>
    <text id="_100_" data-name="100+" class="cls-17" x="79" y="179.349">100+</text>
    <text id="Successful_Projects" data-name="Successful Projects" class="cls-16" x="59.001" y="238.208">Successful Projects</text>
  </g>
  <g>
    <circle class="cls-14" cx="559" cy="129" r="100"/>
    <text id="_100_2" data-name="100%" class="cls-17" x="504.001" y="96.351">100%</text>
    <text id="Satisfied_Customers" data-name="Satisfied Customers" class="cls-16" x="482" y="155.21">Satisfied Customers</text>
  </g>
</svg>
