<svg id="bi:arrow-90deg-down" xmlns="http://www.w3.org/2000/svg" width="43.75" height="50.31" viewBox="0 0 43.75 50.31">
  <defs>
    <style>
      .cls-1 {
        fill: #e8a39a;
        fill-rule: evenodd;
      }
    </style>
  </defs>
  <g id="Group">
    <path id="Vector" class="cls-1" d="M980.2,3662.42a2.115,2.115,0,0,1-.475-0.71,2.171,2.171,0,0,1,0-1.67,2.115,2.115,0,0,1,.475-0.71l11.581-11.58L980.2,3636.17a2.182,2.182,0,0,1,0-3.09,2.171,2.171,0,0,1,3.1,0l13.125,13.12a2.219,2.219,0,0,1,.475.71,2.184,2.184,0,0,1,0,1.68,2.219,2.219,0,0,1-.475.71L983.3,3662.42a2.108,2.108,0,0,1-.711.48,2.15,2.15,0,0,1-1.676,0,2.108,2.108,0,0,1-.711-0.48h0Z" transform="translate(-953.313 -3612.75)"/>
    <path id="Vector-2" data-name="Vector" class="cls-1" d="M994.875,3647.75a2.187,2.187,0,0,1-2.188,2.19H964.25A10.949,10.949,0,0,1,953.312,3639v-24.06a2.188,2.188,0,1,1,4.375,0V3639a6.559,6.559,0,0,0,6.563,6.56h28.437A2.187,2.187,0,0,1,994.875,3647.75Z" transform="translate(-953.313 -3612.75)"/>
  </g>
</svg>
