<svg id="bi:arrow-90deg-down" xmlns="http://www.w3.org/2000/svg" width="50.312" height="43.75" viewBox="0 0 50.312 43.75">
  <defs>
    <style>
      .cls-1 {
        fill: #984e43;
        fill-rule: evenodd;
      }
    </style>
  </defs>
  <g id="Group">
    <path id="Vector" class="cls-1" d="M949.576,3196.2a2.232,2.232,0,0,1,.71-0.47,2.153,2.153,0,0,1,1.677,0,2.221,2.221,0,0,1,.71.47l11.576,11.58,11.577-11.58a2.191,2.191,0,0,1,3.1,3.1L965.8,3212.42a2.1,2.1,0,0,1-.71.48,2.153,2.153,0,0,1-1.677,0,2.1,2.1,0,0,1-.71-0.48l-13.125-13.12a2.188,2.188,0,0,1,0-3.1h0Z" transform="translate(-948.938 -3169.31)"/>
    <path id="Vector-2" data-name="Vector" class="cls-1" d="M964.25,3210.87a2.187,2.187,0,0,1-2.188-2.18v-28.44A10.949,10.949,0,0,1,973,3169.31h24.062a2.19,2.19,0,0,1,0,4.38H973a6.56,6.56,0,0,0-6.563,6.56v28.44A2.185,2.185,0,0,1,964.25,3210.87Z" transform="translate(-948.938 -3169.31)"/>
  </g>
</svg>
