<svg xmlns="http://www.w3.org/2000/svg" width="35.5" height="35.5" viewBox="0 0 35.5 35.5">
  <defs>
    <style>
      .cls-1 {
        fill: #fff;
        stroke: #374146;
        stroke-width: 0.5px;
      }

      .cls-2 {
        fill: #374146;
        fill-rule: evenodd;
      }
    </style>
  </defs>
  <circle class="cls-1" cx="17.75" cy="17.75" r="17.5"/>
  <path id="path804" class="cls-2" d="M838.347,7307.55v11.08a0.289,0.289,0,0,0,.288.29h4.116a0.289,0.289,0,0,0,.288-0.29v-11.26h2.984a0.285,0.285,0,0,0,.288-0.26l0.287-3.4a0.286,0.286,0,0,0-.288-0.31h-3.271v-2.41a1.023,1.023,0,0,1,1.022-1.02h2.3a0.289,0.289,0,0,0,.288-0.29v-3.39a0.289,0.289,0,0,0-.288-0.29h-3.886a4.129,4.129,0,0,0-4.128,4.13v3.27h-2.058a0.29,0.29,0,0,0-.289.29v3.39a0.29,0.29,0,0,0,.289.29h2.058v0.18Z" transform="translate(-823.75 -7289.75)"/>
</svg>
