<svg width="70" height="70" viewBox="0 0 70 70" fill="none" xmlns="http://www.w3.org/2000/svg">
<path d="M8.75016 2.91669H55.4168C56.1904 2.91669 56.9323 3.22398 57.4792 3.77096C58.0262 4.31794 58.3335 5.05981 58.3335 5.83335V17.5C58.3335 18.2736 58.0262 19.0154 57.4792 19.5624C56.9323 20.1094 56.1904 20.4167 55.4168 20.4167H8.75016C7.97661 20.4167 7.23475 20.1094 6.68777 19.5624C6.14079 19.0154 5.8335 18.2736 5.8335 17.5V5.83335C5.8335 5.05981 6.14079 4.31794 6.68777 3.77096C7.23475 3.22398 7.97661 2.91669 8.75016 2.91669ZM8.75016 26.25H55.4168C56.1904 26.25 56.9323 26.5573 57.4792 27.1043C58.0262 27.6513 58.3335 28.3931 58.3335 29.1667V31.1209L51.0418 27.8834L32.0835 36.2834V43.75H8.75016C7.97661 43.75 7.23475 43.4427 6.68777 42.8957C6.14079 42.3488 5.8335 41.6069 5.8335 40.8334V29.1667C5.8335 28.3931 6.14079 27.6513 6.68777 27.1043C7.23475 26.5573 7.97661 26.25 8.75016 26.25ZM8.75016 49.5834H32.0835C32.2585 56.1459 35.0002 62.4167 39.2585 67.0834H8.75016C7.97661 67.0834 7.23475 66.7761 6.68777 66.2291C6.14079 65.6821 5.8335 64.9402 5.8335 64.1667V52.5C5.8335 51.7265 6.14079 50.9846 6.68777 50.4376C7.23475 49.8906 7.97661 49.5834 8.75016 49.5834ZM23.3335 14.5834H26.2502V8.75002H23.3335V14.5834ZM23.3335 37.9167H26.2502V32.0834H23.3335V37.9167ZM23.3335 61.25H26.2502V55.4167H23.3335V61.25ZM11.6668 8.75002V14.5834H17.5002V8.75002H11.6668ZM11.6668 32.0834V37.9167H17.5002V32.0834H11.6668ZM11.6668 55.4167V61.25H17.5002V55.4167H11.6668ZM51.0418 35L64.1668 40.8334V49.5834C64.1668 57.6917 58.5668 65.2458 51.0418 67.0834C43.5168 65.2458 37.9168 57.6917 37.9168 49.5834V40.8334L51.0418 35ZM51.0418 40.6584L43.7502 43.925V51.6833C43.7502 56.175 46.871 60.375 51.0418 61.425V40.6584Z" fill=" #abc6c4"/>
</svg>
