<svg width="70" height="70" viewBox="0 0 70 70" fill="none" xmlns="http://www.w3.org/2000/svg">
<path d="M60.1562 29.5312C60.1562 28.661 59.8105 27.8264 59.1952 27.2111C58.5798 26.5957 57.7452 26.25 56.875 26.25C56.0048 26.25 55.1702 26.5957 54.5548 27.2111C53.9395 27.8264 53.5938 28.661 53.5938 29.5312V29.9491L56.3861 28.5523C56.5379 28.4765 56.7053 28.437 56.875 28.437C57.0447 28.437 57.2121 28.4765 57.3639 28.5523L60.1562 29.9491V29.5312Z" fill=" #abc6c4"/>
<path d="M52.5 38.2812V45.9375H61.25V38.2812C61.25 37.9912 61.1348 37.713 60.9296 37.5079C60.7245 37.3027 60.4463 37.1875 60.1562 37.1875H53.5938C53.3037 37.1875 53.0255 37.3027 52.8204 37.5079C52.6152 37.713 52.5 37.9912 52.5 38.2812Z" fill=" #abc6c4"/>
<path d="M54.6875 31.8478V32.8125C54.6875 33.3927 54.918 33.9491 55.3282 34.3593C55.7384 34.7696 56.2948 35 56.875 35C57.4552 35 58.0116 34.7696 58.4218 34.3593C58.832 33.9491 59.0625 33.3927 59.0625 32.8125V31.8478L56.875 30.7541L54.6875 31.8478Z" fill=" #abc6c4"/>
<path d="M33.9062 64.5312C33.9062 64.8213 34.0215 65.0995 34.2266 65.3046C34.4317 65.5098 34.7099 65.625 35 65.625H50.3125C50.6026 65.625 50.8808 65.5098 51.0859 65.3046C51.291 65.0995 51.4062 64.8213 51.4062 64.5312C51.4062 64.2412 51.291 63.963 51.0859 63.7579C50.8808 63.5527 50.6026 63.4375 50.3125 63.4375H35C34.7099 63.4375 34.4317 63.5527 34.2266 63.7579C34.0215 63.963 33.9062 64.2412 33.9062 64.5312Z" fill=" #abc6c4"/>
<path d="M19.6875 49.2188C19.6875 50.089 20.0332 50.9236 20.6486 51.5389C21.2639 52.1543 22.0985 52.5 22.9688 52.5H62.3438C63.214 52.5 64.0486 52.1543 64.6639 51.5389C65.2793 50.9236 65.625 50.089 65.625 49.2188V48.125H19.6875V49.2188Z" fill=" #abc6c4"/>
<path d="M44.8438 54.6875H40.4688V61.25H44.8438V54.6875Z" fill=" #abc6c4"/>
<path d="M23.5977 33.1811C23.6241 32.9719 23.7104 32.7748 23.8463 32.6136C23.9821 32.4523 24.1616 32.3338 24.3633 32.2722C25.058 32.0532 25.7312 31.7713 26.3747 31.43C26.5611 31.3329 26.7716 31.2916 26.9809 31.311C27.1902 31.3304 27.3894 31.4097 27.5548 31.5394L30.7486 34.0244L34.0156 30.7442L31.5306 27.5505C31.4009 27.3851 31.3216 27.1858 31.3022 26.9765C31.2828 26.7672 31.3242 26.5567 31.4213 26.3703C31.7624 25.7268 32.0443 25.0535 32.2634 24.3589C32.325 24.1573 32.4436 23.9777 32.6048 23.8419C32.7661 23.706 32.9632 23.6197 33.1723 23.5933L37.1875 23.0967V18.4658L33.1811 17.9648C32.9719 17.9384 32.7748 17.8521 32.6136 17.7162C32.4523 17.5804 32.3338 17.4009 32.2722 17.1992C32.053 16.5046 31.7711 15.8314 31.43 15.1878C31.3329 15.0014 31.2916 14.7909 31.311 14.5816C31.3304 14.3723 31.4097 14.1731 31.5394 14.0077L34.0156 10.8183L30.7442 7.54688L27.5505 10.0319C27.3851 10.1616 27.1858 10.2409 26.9765 10.2603C26.7672 10.2797 26.5567 10.2383 26.3703 10.1413C25.7268 9.80013 25.0535 9.51824 24.3589 9.29906C24.1573 9.23747 23.9777 9.11892 23.8419 8.95766C23.706 8.79641 23.6197 8.59933 23.5933 8.39016L23.0967 4.375H18.4658L17.9648 8.38141C17.9384 8.59058 17.8521 8.78766 17.7162 8.94891C17.5804 9.11017 17.4009 9.22872 17.1992 9.29031C16.5046 9.50949 15.8314 9.79138 15.1878 10.1325C15.0014 10.2296 14.7909 10.2709 14.5816 10.2515C14.3723 10.2321 14.1731 10.1528 14.0077 10.0231L10.8183 7.54688L7.5425 10.8281L10.0275 14.0219C10.1572 14.1873 10.2365 14.3866 10.2559 14.5959C10.2753 14.8052 10.234 15.0156 10.1369 15.202C9.79575 15.8456 9.51386 16.5188 9.29469 17.2134C9.2331 17.4151 9.11454 17.5946 8.95329 17.7305C8.79203 17.8663 8.59496 17.9526 8.38578 17.9791L4.375 18.4658V23.0967L8.38141 23.5977C8.59058 23.6241 8.78766 23.7104 8.94891 23.8463C9.11017 23.9821 9.22872 24.1616 9.29031 24.3633C9.50949 25.0579 9.79138 25.7311 10.1325 26.3747C10.2296 26.5611 10.2709 26.7716 10.2515 26.9809C10.2321 27.1902 10.1528 27.3894 10.0231 27.5548L7.54688 30.7442L10.8281 34.02L14.0219 31.535C14.1873 31.4053 14.3866 31.326 14.5959 31.3066C14.8052 31.2872 15.0156 31.3285 15.202 31.4256C15.8455 31.7669 16.5188 32.0488 17.2134 32.2678C17.4151 32.3294 17.5946 32.448 17.7305 32.6092C17.8663 32.7705 17.9526 32.9675 17.9791 33.1767L18.4658 37.1875H23.0967L23.5977 33.1811ZM10.9375 20.7812C10.9375 18.8343 11.5148 16.9312 12.5965 15.3124C13.6781 13.6936 15.2155 12.4319 17.0142 11.6868C18.8129 10.9418 20.7922 10.7468 22.7017 11.1266C24.6112 11.5065 26.3652 12.444 27.7418 13.8207C29.1185 15.1973 30.056 16.9513 30.4359 18.8608C30.8157 20.7703 30.6207 22.7496 29.8757 24.5483C29.1306 26.347 27.8689 27.8844 26.2501 28.966C24.6313 30.0477 22.7282 30.625 20.7812 30.625C18.1715 30.6218 15.6696 29.5837 13.8242 27.7383C11.9788 25.8929 10.9407 23.391 10.9375 20.7812Z" fill=" #abc6c4"/>
<path d="M20.7812 28.4375C25.0097 28.4375 28.4375 25.0097 28.4375 20.7812C28.4375 16.5528 25.0097 13.125 20.7812 13.125C16.5528 13.125 13.125 16.5528 13.125 20.7812C13.125 25.0097 16.5528 28.4375 20.7812 28.4375Z" fill=" #abc6c4"/>
<path d="M62.3438 19.6875H39.375V24.0625C39.3749 24.329 39.2775 24.5864 39.1011 24.7862C38.9247 24.986 38.6814 25.1144 38.4169 25.1475L34.1305 25.6834C33.9985 26.04 33.8494 26.3955 33.6831 26.7498L36.3398 30.1645C36.5031 30.375 36.5839 30.6377 36.5672 30.9036C36.5505 31.1694 36.4374 31.4199 36.2491 31.6083L31.6094 36.2491C31.421 36.4374 31.1705 36.5505 30.9047 36.5672C30.6388 36.5839 30.3761 36.5031 30.1656 36.3398L26.7498 33.6875C26.3955 33.8537 26.0389 34.0025 25.6834 34.1348L25.1475 38.4212C25.1135 38.6849 24.9846 38.9272 24.7849 39.1027C24.5852 39.2783 24.3284 39.3751 24.0625 39.375H19.6875V45.9375H50.3125V38.2812C50.3146 37.4932 50.6007 36.7324 51.1184 36.1383C51.6362 35.5442 52.3508 35.1568 53.1311 35.047C52.7212 34.3735 52.503 33.6009 52.5 32.8125C52.3559 32.8143 52.2129 32.7872 52.0794 32.7328C51.9459 32.6785 51.8246 32.598 51.7227 32.4961C51.6208 32.3942 51.5403 32.2729 51.4859 32.1394C51.4316 32.0059 51.4045 31.8629 51.4062 31.7188V29.5312C51.4062 28.0808 51.9824 26.6898 53.008 25.6643C54.0336 24.6387 55.4246 24.0625 56.875 24.0625C58.3254 24.0625 59.7164 24.6387 60.742 25.6643C61.7676 26.6898 62.3438 28.0808 62.3438 29.5312V31.7188C62.3438 32.0088 62.2285 32.287 62.0234 32.4921C61.8183 32.6973 61.5401 32.8125 61.25 32.8125C61.2461 33.6009 61.0268 34.3732 60.6156 35.0459C61.3962 35.1563 62.1109 35.544 62.6291 36.1381C63.1473 36.7322 63.4342 37.4929 63.4375 38.2812V45.9375H65.625V22.9688C65.625 22.0985 65.2793 21.2639 64.6639 20.6486C64.0486 20.0332 63.214 19.6875 62.3438 19.6875ZM26.25 42.6562H24.0625V40.4688H26.25V42.6562ZM30.625 42.6562H28.4375V40.4688H30.625V42.6562ZM35 42.6562H32.8125V40.4688H35V42.6562ZM39.375 27.3438H41.5625V29.5312H39.375V27.3438ZM39.375 31.7188H43.75V33.9062H39.375V31.7188ZM39.375 42.6562H37.1875V40.4688H39.375V42.6562ZM43.75 42.6562H41.5625V40.4688H43.75V42.6562ZM48.125 38.2812H39.375V36.0938H48.125V38.2812ZM48.125 33.9062H45.9375V31.7188H48.125V33.9062ZM48.125 29.5312H43.75V27.3438H48.125V29.5312Z" fill=" #abc6c4"/>
</svg>
