<svg width="70" height="70" viewBox="0 0 70 70" fill="none" xmlns="http://www.w3.org/2000/svg">
<g clip-path="url(#clip0)">
<path d="M44.1962 36.3037L45.6537 39.9451H38.3911C41.0455 35.1831 42.4554 29.8291 42.4915 24.3774L47.5 22.8748V24.494C47.5 24.7614 47.4915 25.0275 47.486 25.2948C45.2521 26.0883 43.7573 28.1995 43.75 30.5701V33.9813C43.7494 34.7766 43.9008 35.5652 44.1962 36.3037ZM26.25 44.9451C26.2512 46.2219 26.7438 47.4493 27.6251 48.374C27.1613 48.7115 26.7065 49.0613 26.2274 49.3738L23.75 50.9589L21.2775 49.3701C15.7349 45.8166 11.5204 40.5328 9.28894 34.339L39.964 25.1361C39.7931 30.3809 38.2452 35.4877 35.4761 39.9451H31.25C28.4888 39.9451 26.25 42.1838 26.25 44.9451ZM0.678711 32.1161C0.668945 32.0538 0.657349 31.991 0.647583 31.9311L5.61523 30.4449C5.76233 31.1951 5.94116 31.9452 6.14136 32.6776L1.1023 34.1901C0.9375 33.4723 0.801392 32.7887 0.678711 32.1161ZM0.102539 27.0947L5.04639 25.611C5.08118 26.3953 5.13855 27.1735 5.22888 27.9462L0.29602 29.4263C0.283813 29.314 0.274048 29.2023 0.26123 29.09C0.197754 28.4448 0.13977 27.7911 0.102539 27.0947ZM40 12.5153L7.5 22.265V13.3264L23.7927 7.50732L40 12.1375V12.5153ZM40 15.1251V17.5153L7.67029 27.2137C7.59155 26.4374 7.54272 25.6555 7.52258 24.8688L40 15.1251ZM47.5 17.8748V20.2649L42.5 21.7651V19.375L47.5 17.8748ZM47.5 15.2649L42.5 16.7651V14.375L47.5 12.8748V15.2649ZM8.02002 29.7186L28.36 23.6176L40 20.1251V22.5153L8.53516 31.955C8.3374 31.2176 8.16101 30.4736 8.02002 29.7186ZM0 7.12524L23.75 0L47.5 7.12524V10.2649L42.5 11.7651V11.1951C42.5 10.6372 42.1301 10.1471 41.5936 9.9939L24.0936 4.9939C23.8428 4.92065 23.5754 4.9292 23.3301 5.0177L5.83008 11.2677C5.33203 11.4453 5 11.9165 5 12.4451V23.0151L0 24.5148L0 7.12524ZM23.75 63.5425C12.9834 58.0115 4.99268 48.2629 1.68274 36.6199L6.89148 35.0574C9.29443 41.8237 13.88 47.5983 19.9249 51.4728L23.0737 53.4961C23.4857 53.761 24.0143 53.761 24.4263 53.4961L27.5751 51.4728L27.6074 51.4514C27.1674 53.5254 28.0994 55.6488 29.9237 56.7285C29.165 57.6288 28.7494 58.7677 28.75 59.9451C28.7524 60.119 28.764 60.2924 28.7848 60.4651C27.1771 61.6022 25.495 62.6306 23.75 63.5425ZM55.8752 69.9451H35C33.6194 69.9451 32.5 68.8257 32.5 67.4451C32.4976 66.1468 33.4979 65.0677 34.7925 64.9713C35.4645 64.9017 35.9656 64.3207 35.9363 63.6462C35.91 62.9748 35.3583 62.4445 34.6863 62.4451H33.75C32.3694 62.4451 31.25 61.3257 31.25 59.9451C31.25 58.5644 32.3694 57.4451 33.75 57.4451C34.4403 57.4451 35 56.8854 35 56.1951C35 55.5048 34.4403 54.9451 33.75 54.9451H32.5C31.1194 54.9451 30 53.8257 30 52.4451C30 51.0644 31.1194 49.9451 32.5 49.9451C33.1903 49.9451 33.75 49.3854 33.75 48.6951C33.75 48.0048 33.1903 47.4451 32.5 47.4451H31.25C29.8694 47.4451 28.75 46.3257 28.75 44.9451C28.75 43.5644 29.8694 42.4451 31.25 42.4451H47.5C47.915 42.4451 48.3032 42.2394 48.5358 41.8957C48.7689 41.5521 48.8159 41.1151 48.6615 40.73L46.5186 35.3748C46.3403 34.9322 46.2494 34.4586 46.25 33.9813V30.5701C46.25 28.844 47.6489 27.4451 49.375 27.4451C51.1011 27.4451 52.5 28.844 52.5 30.5701V34.9451C52.5 35.1044 52.5299 35.2618 52.5885 35.4102L55.0885 41.6602C55.2264 42.0007 55.5066 42.2644 55.8551 42.381L62.5 44.5959V65.5261L55.8752 69.9451ZM70 64.9451H65V44.9451H70V64.9451Z" fill=" #abc6c4"/>
<path d="M63.2754 13.4949L61.5664 15.3198C62.1371 15.8539 62.6736 16.4233 63.1729 17.0251L65.0955 15.426C64.5297 14.7455 63.9218 14.1003 63.2754 13.4949Z" fill=" #abc6c4"/>
<path d="M70 29.0063C70 28.5162 69.9835 28.031 69.95 27.55L67.4561 27.7185C67.4847 28.1439 67.4994 28.573 67.5 29.0063C67.5 29.3597 67.4902 29.7125 67.4701 30.061L69.9701 30.2051C69.9902 29.8077 70 29.408 70 29.0063Z" fill=" #abc6c4"/>
<path d="M61.231 11.806C60.5144 11.2854 59.7661 10.8093 58.9897 10.3815L57.7837 12.5702C58.4679 12.9449 59.1277 13.3624 59.76 13.8202L61.231 11.806Z" fill=" #abc6c4"/>
<path d="M69.6553 32.8375L67.1949 32.3901C67.0558 33.158 66.8678 33.9166 66.6328 34.6613L69.015 35.4114C69.2823 34.5679 69.496 33.7079 69.6553 32.8375Z" fill=" #abc6c4"/>
<path d="M56.5873 9.24744C55.7633 8.92029 54.9198 8.64563 54.061 8.42529L53.436 10.8459C54.1929 11.0413 54.9369 11.2836 55.6632 11.571L56.5873 9.24744Z" fill=" #abc6c4"/>
<path d="M65.1562 38.089L67.3438 39.3012C67.594 38.8428 67.8436 38.3728 68.0573 37.8912L65.7874 36.8463C65.5957 37.2687 65.3851 37.6831 65.1562 38.089Z" fill=" #abc6c4"/>
<path d="M64.5562 18.9148C64.9761 19.5728 65.3551 20.2557 65.6914 20.9601L67.9485 19.8877C67.5682 19.0881 67.1385 18.313 66.6613 17.5677L64.5562 18.9148Z" fill=" #abc6c4"/>
<path d="M66.5625 23.1311C66.806 23.8727 67.0032 24.6289 67.1527 25.3949L69.6063 24.9188C69.4373 24.0491 69.2139 23.1903 68.9362 22.3486L66.5625 23.1311Z" fill=" #abc6c4"/>
<path d="M53.7321 21.2848C56.7698 22.4878 58.7601 25.4285 58.7498 28.6951H61.2498C61.2644 24.4049 58.6497 20.5432 54.661 18.9636L54.2148 18.7848L53.2847 21.1047L53.7321 21.2848Z" fill=" #abc6c4"/>
</g>
<defs>
<clipPath id="clip0">
<rect width="70" height="70" fill="white"/>
</clipPath>
</defs>
</svg>
