<svg width="70" height="70" viewBox="0 0 70 70" fill="none" xmlns="http://www.w3.org/2000/svg">
<path d="M49.2188 39.375C50.4269 39.375 51.4062 38.3956 51.4062 37.1875C51.4062 35.9794 50.4269 35 49.2188 35C48.0106 35 47.0312 35.9794 47.0312 37.1875C47.0312 38.3956 48.0106 39.375 49.2188 39.375Z" fill=" #abc6c4"/>
<path d="M28.4375 19.6875H15.3125V32.8125H28.4375V19.6875ZM21.7087 31.2047C21.5173 31.5098 21.1881 31.7023 20.8272 31.7177C20.8119 31.7188 20.7966 31.7188 20.7812 31.7188C20.4378 31.7188 20.1141 31.558 19.9063 31.2812L16.625 26.9063L18.375 25.5948L20.6992 28.6934L25.3236 21.2953L27.1775 22.4558L21.7087 31.2047Z" fill=" #abc6c4"/>
<path d="M45.068 16.1634C45.2867 17.1227 45.6652 18.0327 46.1912 18.8694C46.4636 19.3025 46.4002 19.8647 46.0392 20.2256L45.0855 21.1794L46.632 22.7259L47.5858 21.7722C47.9478 21.4102 48.5111 21.3478 48.942 21.6202C49.7788 22.1462 50.6888 22.5247 51.648 22.7434C52.1467 22.8572 52.5 23.3002 52.5 23.8109V25.1562H54.6875V23.8109C54.6875 23.3002 55.0408 22.8583 55.5384 22.7445C56.4977 22.5258 57.4077 22.1473 58.2444 21.6213C58.6764 21.3489 59.2386 21.4112 59.6006 21.7733L60.5544 22.727L62.1009 21.1805L61.1472 20.2267C60.7862 19.8658 60.7228 19.3025 60.9952 18.8705C61.5212 18.0338 61.8997 17.1238 62.1184 16.1645C62.2322 15.6658 62.6752 15.3125 63.1859 15.3125H64.5312V13.125H63.1859C62.6752 13.125 62.2333 12.7717 62.1195 12.2741C61.9008 11.3148 61.5223 10.4048 60.9963 9.56813C60.7239 9.135 60.7873 8.57281 61.1483 8.21187L62.102 7.25813L60.5555 5.71156L59.6017 6.66531C59.2397 7.02844 58.6764 7.08969 58.2455 6.81734C57.4087 6.29125 56.4987 5.91281 55.5395 5.69406C55.0408 5.58031 54.6875 5.13734 54.6875 4.62656V3.28125H52.5V4.62656C52.5 5.13734 52.1467 5.57922 51.6491 5.69297C50.6898 5.91172 49.7798 6.29016 48.9431 6.81625C48.5111 7.08859 47.9489 7.02734 47.5869 6.66422L46.6331 5.71047L45.0866 7.25703L46.0403 8.21078C46.4013 8.57172 46.4647 9.135 46.1923 9.56703C45.6663 10.4037 45.2878 11.3137 45.0691 12.273C44.9553 12.7717 44.5123 13.125 44.0016 13.125H42.6562V15.3125H44.0016C44.5123 15.3125 44.9553 15.6658 45.068 16.1634ZM53.5938 6.5625C57.8145 6.5625 61.25 9.99797 61.25 14.2188C61.25 18.4395 57.8145 21.875 53.5938 21.875C49.373 21.875 45.9375 18.4395 45.9375 14.2188C45.9375 9.99797 49.373 6.5625 53.5938 6.5625Z" fill=" #abc6c4"/>
<path d="M15.3125 52.5H28.4375V39.375H15.3125V52.5ZM16.7267 42.3358L18.2733 40.7892L21.875 44.3909L25.4767 40.7892L27.0233 42.3358L23.4216 45.9375L27.0233 49.5392L25.4767 51.0858L21.875 47.4841L18.2733 51.0858L16.7267 49.5392L20.3284 45.9375L16.7267 42.3358Z" fill=" #abc6c4"/>
<path d="M53.5938 19.6875C56.6141 19.6875 59.0625 17.2391 59.0625 14.2188C59.0625 11.1984 56.6141 8.75 53.5938 8.75C50.5734 8.75 48.125 11.1984 48.125 14.2188C48.125 17.2391 50.5734 19.6875 53.5938 19.6875Z" fill=" #abc6c4"/>
<path d="M3.28125 62.3438V65.625C3.28125 66.2287 3.77125 66.7188 4.375 66.7188H65.625C66.2287 66.7188 66.7188 66.2287 66.7188 65.625V62.3438H3.28125Z" fill=" #abc6c4"/>
<path d="M49.2188 31.7188C46.2033 31.7188 43.75 34.172 43.75 37.1875C43.75 40.203 46.2033 42.6562 49.2188 42.6562C52.2342 42.6562 54.6875 40.203 54.6875 37.1875C54.6875 34.172 52.2342 31.7188 49.2188 31.7188ZM49.2188 41.5625C46.8059 41.5625 44.8438 39.6003 44.8438 37.1875C44.8438 34.7747 46.8059 32.8125 49.2188 32.8125C51.6316 32.8125 53.5938 34.7747 53.5938 37.1875C53.5938 39.6003 51.6316 41.5625 49.2188 41.5625Z" fill=" #abc6c4"/>
<path d="M62.3438 24.0308L61.3277 25.0469C60.9 25.4745 60.2088 25.4745 59.7811 25.0469L58.6458 23.9116C58.077 24.2091 57.4853 24.4551 56.875 24.6476V26.25C56.875 26.8548 56.3861 27.3437 55.7812 27.3437H51.4062C50.8014 27.3437 50.3125 26.8548 50.3125 26.25V24.6466C49.7011 24.4541 49.1094 24.2091 48.5417 23.9105L47.4064 25.0458C46.9787 25.4734 46.2875 25.4734 45.8598 25.0458L44.8755 24.0625H30.625V25.1562H40.4688V27.3437H30.625V33.9062C30.625 34.5111 30.1361 35 29.5312 35H14.2188C13.6139 35 13.125 34.5111 13.125 33.9062V27.3437H10.9375V56.875H59.0625V26.25H61.25V57.9687C61.25 58.5736 60.7611 59.0625 60.1562 59.0625H9.84375C9.23891 59.0625 8.75 58.5736 8.75 57.9687V26.25C8.75 25.6451 9.23891 25.1562 9.84375 25.1562H13.125V24.0625H7.65625V60.1562H62.3438V24.0308ZM30.625 53.5937C30.625 54.1986 30.1361 54.6875 29.5312 54.6875H14.2188C13.6139 54.6875 13.125 54.1986 13.125 53.5937V38.2812C13.125 37.6764 13.6139 37.1875 14.2188 37.1875H29.5312C30.1361 37.1875 30.625 37.6764 30.625 38.2812V53.5937ZM57.9688 38.2812H56.7875C56.6016 39.5751 56.0919 40.763 55.3416 41.7637L56.1794 42.6016L54.6328 44.1481L53.795 43.3103C52.7942 44.0606 51.6064 44.5703 50.3125 44.7562V45.9375H48.125V44.7562C46.8311 44.5703 45.6433 44.0606 44.6425 43.3103L43.8047 44.1481L42.2581 42.6016L43.0959 41.7637C42.3456 40.763 41.8359 39.5751 41.65 38.2812H40.4688V36.0937H41.65C41.8359 34.7998 42.3456 33.612 43.0959 32.6112L42.2581 31.7734L43.8047 30.2269L44.6425 31.0647C45.6433 30.3144 46.8311 29.8058 48.125 29.6187V28.4375H50.3125V29.6187C51.6064 29.8047 52.7942 30.3144 53.795 31.0647L54.6328 30.2269L56.1794 31.7734L55.3416 32.6112C56.0919 33.612 56.6005 34.7998 56.7875 36.0937H57.9688V38.2812Z" fill=" #abc6c4"/>
</svg>
