<svg width="70" height="70" viewBox="0 0 70 70" fill="none" xmlns="http://www.w3.org/2000/svg">
<path d="M41.5625 30.625C46.395 30.625 50.3125 29.6456 50.3125 28.4375C50.3125 27.2294 46.395 26.25 41.5625 26.25C36.73 26.25 32.8125 27.2294 32.8125 28.4375C32.8125 29.6456 36.73 30.625 41.5625 30.625Z" fill=" #abc6c4"/>
<path d="M32.8125 35C32.8125 35.5579 35.8203 37.1875 41.5625 37.1875C47.3047 37.1875 50.3125 35.5579 50.3125 35V31.1938C47.5483 32.3633 44.5622 32.9157 41.5625 32.8125C38.5628 32.9157 35.5767 32.3633 32.8125 31.1938V35Z" fill=" #abc6c4"/>
<path d="M32.8125 41.5625C32.8125 42.1203 35.8203 43.75 41.5625 43.75C47.3047 43.75 50.3125 42.1203 50.3125 41.5625V37.7562C47.5483 38.9258 44.5622 39.4782 41.5625 39.375C38.5628 39.4782 35.5767 38.9258 32.8125 37.7562V41.5625Z" fill=" #abc6c4"/>
<path d="M32.8125 48.125C32.8125 48.6828 35.8203 50.3125 41.5625 50.3125C47.3047 50.3125 50.3125 48.6828 50.3125 48.125V44.3187C47.5483 45.4883 44.5622 46.0407 41.5625 45.9375C38.5628 46.0407 35.5767 45.4883 32.8125 44.3187V48.125Z" fill=" #abc6c4"/>
<path d="M29.5312 21.875C30.7394 21.875 31.7188 20.8956 31.7188 19.6875C31.7188 18.4794 30.7394 17.5 29.5312 17.5C28.3231 17.5 27.3438 18.4794 27.3438 19.6875C27.3438 20.8956 28.3231 21.875 29.5312 21.875Z" fill=" #abc6c4"/>
<path d="M57.9689 15.3125H55.7158C55.5288 13.6051 54.8972 11.9767 53.8841 10.5897C52.871 9.20273 51.5117 8.1058 49.9421 7.40843C48.3724 6.71106 46.6473 6.43764 44.9389 6.61547C43.2306 6.7933 41.5988 7.41617 40.2064 8.42188C38.2679 5.96608 35.6669 4.11656 32.7108 3.0919C29.7547 2.06724 26.567 1.91028 23.5245 2.63956C20.482 3.36884 17.7119 4.95388 15.5415 7.20734C13.3711 9.46081 11.8912 12.2885 11.2767 15.3563C8.73949 15.5496 6.37593 16.7187 4.68249 18.6179C2.98906 20.5172 2.09756 22.9988 2.19525 25.5415C2.29293 28.0842 3.37221 30.4901 5.20637 32.2539C7.04053 34.0176 9.48683 35.0019 12.0314 35H30.6252V28.4375C30.6252 25.6375 35.5361 24.2594 40.4689 24.0844V21.875C40.4689 21.5849 40.3537 21.3067 40.1486 21.1016C39.9434 20.8965 39.6652 20.7813 39.3752 20.7813H33.7533C33.4871 21.8123 32.854 22.7108 31.9726 23.3085C31.0913 23.9061 30.0223 24.1618 28.9659 24.0276C27.9096 23.8935 26.9384 23.3786 26.2345 22.5796C25.5306 21.7806 25.1422 20.7523 25.1422 19.6875C25.1422 18.6227 25.5306 17.5944 26.2345 16.7954C26.9384 15.9964 27.9096 15.4815 28.9659 15.3474C30.0223 15.2132 31.0913 15.4689 31.9726 16.0665C32.854 16.6642 33.4871 17.5627 33.7533 18.5938H39.3752C40.2446 18.5963 41.0777 18.9429 41.6925 19.5577C42.3073 20.1725 42.6538 21.0056 42.6564 21.875V24.0844C47.5892 24.2594 52.5002 25.6375 52.5002 28.4375H54.6877V24.0625C54.6877 23.7724 54.8029 23.4942 55.008 23.2891C55.2131 23.084 55.4913 22.9688 55.7814 22.9688H57.9689V25.1563H56.8752V29.5313C56.8752 29.8213 56.7599 30.0995 56.5548 30.3047C56.3497 30.5098 56.0715 30.625 55.7814 30.625H52.5002V35H57.9689C60.5796 35 63.0834 33.9629 64.9295 32.1168C66.7756 30.2708 67.8127 27.767 67.8127 25.1563C67.8127 22.5455 66.7756 20.0417 64.9295 18.1957C63.0834 16.3496 60.5796 15.3125 57.9689 15.3125ZM62.3439 25.1563H60.1564V22.9688H62.3439V25.1563Z" fill=" #abc6c4"/>
<path d="M60.1562 63.4375C60.1575 64.5012 59.7706 65.5289 59.0679 66.3275C58.3653 67.1262 57.3953 67.641 56.3401 67.7752C55.2849 67.9095 54.2169 67.654 53.3367 67.0567C52.4565 66.4594 51.8245 65.5614 51.5594 64.5312H41.5625C41.2724 64.5312 40.9942 64.416 40.7891 64.2109C40.584 64.0058 40.4688 63.7276 40.4688 63.4375V52.5H42.6562V62.3438H51.5594C51.8245 61.3136 52.4565 60.4156 53.3367 59.8183C54.2169 59.221 55.2849 58.9655 56.3401 59.0998C57.3953 59.234 58.3653 59.7488 59.0679 60.5475C59.7706 61.3461 60.1575 62.3738 60.1562 63.4375Z" fill=" #abc6c4"/>
<path d="M30.625 39.375V41.5625H25.1563C24.2868 41.5651 23.4538 41.9116 22.839 42.5264C22.2242 43.1412 21.8776 43.9743 21.875 44.8438V59.0625C21.875 60.5129 21.2989 61.9039 20.2733 62.9295C19.2477 63.9551 17.8567 64.5313 16.4063 64.5313H10.7844C10.5182 65.5623 9.8851 66.4608 9.00378 67.0585C8.12246 67.6561 7.05343 67.9118 5.99707 67.7776C4.94071 67.6435 3.96955 67.1286 3.26563 66.3296C2.5617 65.5306 2.17334 64.5023 2.17334 63.4375C2.17334 62.3727 2.5617 61.3444 3.26563 60.5454C3.96955 59.7464 4.94071 59.2315 5.99707 59.0974C7.05343 58.9632 8.12246 59.2189 9.00378 59.8165C9.8851 60.4142 10.5182 61.3127 10.7844 62.3438H16.4063C17.2757 62.3412 18.1088 61.9946 18.7236 61.3798C19.3384 60.765 19.6849 59.9319 19.6875 59.0625V44.8438C19.6875 43.3933 20.2637 42.0023 21.2893 40.9768C22.3149 39.9512 23.7059 39.375 25.1563 39.375H30.625Z" fill=" #abc6c4"/>
<path d="M59.0625 47.0312C59.0625 46.161 58.7168 45.3264 58.1014 44.7111C57.4861 44.0957 56.6515 43.75 55.7812 43.75H52.5V45.9375H55.7812C56.0713 45.9375 56.3495 46.0527 56.5546 46.2579C56.7598 46.463 56.875 46.7412 56.875 47.0312V55.7812C56.875 56.0713 56.9902 56.3495 57.1954 56.5546C57.4005 56.7598 57.6787 56.875 57.9688 56.875H63.4375V54.6875H59.0625V47.0312Z" fill=" #abc6c4"/>
<path d="M33.9062 65.625H30.625V67.8125H35C35.2901 67.8125 35.5683 67.6973 35.7734 67.4921C35.9785 67.287 36.0938 67.0088 36.0938 66.7188V51.4062H33.9062V65.625Z" fill=" #abc6c4"/>
<path d="M65.625 54.6875H67.8125V56.875H65.625V54.6875Z" fill=" #abc6c4"/>
<path d="M26.25 65.625H28.4375V67.8125H26.25V65.625Z" fill=" #abc6c4"/>
</svg>
