<svg width="70" height="70" viewBox="0 0 70 70" fill="none" xmlns="http://www.w3.org/2000/svg">
<g clip-path="url(#clip0)">
<path d="M14.4789 36.3268L11.9796 43.8253C11.7344 44.5631 11.9257 45.3745 12.4752 45.924L24.0762 57.525C24.6254 58.0744 25.4371 58.2657 26.1748 58.0206L33.6733 55.5212L14.4789 36.3268Z" fill=" #abc6c4"/>
<path d="M38.5774 57.5249C37.5726 58.5295 36.7643 58.7403 36.1727 59.0118L30.5963 60.8704L29.3158 67.547C29.1799 68.2267 29.3965 68.9191 29.8767 69.3993C30.543 70.0657 31.5753 70.1919 32.3818 69.7068L46.883 60.7326C47.6249 60.288 48.0087 59.4225 47.839 58.5728L46.1206 49.9817L38.5774 57.5249Z" fill=" #abc6c4"/>
<path d="M2.45308 40.6844L9.12974 39.4036L11.0676 33.5922C11.5303 32.6249 11.718 32.1801 12.4753 31.4228L20.0184 23.8796L11.4273 22.1613C10.5775 21.9914 9.71217 22.3751 9.26756 23.1174L0.293338 37.6185C-0.125705 38.3152 -0.0931657 39.1915 0.374139 39.8545C0.859354 40.5377 1.67721 40.8396 2.45308 40.6844Z" fill=" #abc6c4"/>
<path d="M66.4989 0.601125L62.7476 4.35269C55.2211 4.35747 50.3681 4.46958 45.1743 7.07243C45.3521 11.6421 47.2051 16.1102 50.5479 19.4527C53.9015 22.8063 58.3443 24.6441 62.936 24.8102C65.5308 19.6224 65.6429 14.7713 65.6477 7.25318L69.3995 3.50134C70.2008 2.70003 70.2008 1.40271 69.3995 0.601125C68.5977 -0.200456 67.3005 -0.200456 66.4989 0.601125Z" fill=" #abc6c4"/>
<path d="M38.5769 34.323C39.3778 33.5221 39.3778 32.2236 38.5769 31.4228C37.776 30.6219 36.4775 30.6219 35.6767 31.4228C34.8758 32.2236 34.8758 33.5221 35.6767 34.323C36.4775 35.1238 37.776 35.1238 38.5769 34.323Z" fill=" #abc6c4"/>
<path d="M41.3215 9.40613C38.8935 11.1327 36.2557 13.4426 33.1457 16.5526L16.8252 32.8729L37.127 53.1744L53.4473 36.8543C56.5347 33.7669 58.8358 31.1441 60.5585 28.7308C55.7548 28.0768 51.2001 25.9062 47.6468 22.3528C44.0977 18.8039 41.9746 14.2102 41.3215 9.40613ZM41.4774 37.2231C39.0784 39.6221 35.1756 39.6221 32.7766 37.2231C30.3778 34.8243 30.3778 30.9213 32.7766 28.5226C35.1756 26.1235 39.0784 26.1235 41.4774 28.5226C43.8764 30.9213 43.8764 34.8243 41.4774 37.2231Z" fill=" #abc6c4"/>
<path d="M5.73848 52.6605C3.40483 54.9941 1.0977 60.7624 0.0243202 67.6335C-0.0760314 68.2806 0.13766 68.9363 0.600863 69.3993C1.06407 69.8624 1.71963 70.0762 2.36672 69.9756C9.23629 68.9036 15.0043 66.5966 17.3396 64.2614C18.8166 62.7845 19.5796 60.8778 19.6928 58.941L11.059 50.3073C9.12213 50.4205 7.21559 51.1835 5.73848 52.6605Z" fill=" #abc6c4"/>
</g>
<defs>
<clipPath id="clip0">
<rect width="70" height="70" fill="white"/>
</clipPath>
</defs>
</svg>
