<svg xmlns="http://www.w3.org/2000/svg" width="35.5" height="35.5" viewBox="0 0 35.5 35.5">
  <defs>
    <style>
      .cls-1 {
        fill: #fff;
        stroke: #984e43;
        stroke-width: 0.5px;
      }

      .cls-2 {
        fill: #984e43;
        fill-rule: evenodd;
        opacity: 0.55;
      }
    </style>
  </defs>
  <circle class="cls-1" cx="17.75" cy="17.75" r="17.5"/>
  <path id="path806" class="cls-2" d="M903.91,7303.2a7.2,7.2,0,0,0-7.2-7.2h-9.5a7.2,7.2,0,0,0-7.2,7.2v9.51a7.2,7.2,0,0,0,7.2,7.2h9.5a7.2,7.2,0,0,0,7.2-7.2v-9.51Zm-2.256,9.51a4.942,4.942,0,0,1-4.947,4.94h-9.5a4.942,4.942,0,0,1-4.946-4.94v-9.51a4.942,4.942,0,0,1,4.946-4.94h9.5a4.942,4.942,0,0,1,4.947,4.94v9.51ZM892,7302.21a5.9,5.9,0,1,0,5.9,5.9A5.9,5.9,0,0,0,892,7302.21Zm0,9.68a3.78,3.78,0,1,1,3.782-3.78A3.782,3.782,0,0,1,892,7311.89Zm6.249-11.49a1.405,1.405,0,1,0,1.406,1.41A1.408,1.408,0,0,0,898.245,7300.4Z" transform="translate(-873.75 -7289.75)"/>
</svg>
