<svg xmlns="http://www.w3.org/2000/svg" width="35.5" height="35.5" viewBox="0 0 35.5 35.5">
  <defs>
    <style>
      .cls-1 {
        fill: #fff;
        stroke: #984e43;
        stroke-width: 0.5px;
      }

      .cls-2 {
        fill: #984e43;
        fill-rule: evenodd;
        opacity: 0.55;
      }
    </style>
  </defs>
  <circle class="cls-1" cx="17.75" cy="17.75" r="17.5"/>
  <g>
    <path id="path816" class="cls-2" d="M932.6,7316.26h3.678a0.317,0.317,0,0,0,.319-0.32v-12.35a0.323,0.323,0,0,0-.319-0.32H932.6a0.324,0.324,0,0,0-.319.32v12.35A0.318,0.318,0,0,0,932.6,7316.26Zm19.563-7.45v7.13a0.318,0.318,0,0,1-.319.32h-3.679a0.318,0.318,0,0,1-.319-0.32v-6.63c0-1.74-.623-2.93-2.187-2.93a2.364,2.364,0,0,0-2.214,1.57,3.021,3.021,0,0,0-.143,1.06v6.93a0.318,0.318,0,0,1-.319.32h-3.679a0.316,0.316,0,0,1-.318-0.32c0.008-1.77.045-10.33,0.008-12.34a0.322,0.322,0,0,1,.318-0.33h3.671a0.324,0.324,0,0,1,.319.32v1.52c-0.008.02-.021,0.03-0.028,0.05H943.3v-0.05a4.29,4.29,0,0,1,3.891-2.14C950.035,7302.97,952.164,7304.82,952.164,7308.81Z" transform="translate(-923.75 -7289.75)"/>
    <path id="path818" class="cls-2" d="M936.622,7299.31a2.311,2.311,0,1,1-2.311-2.31A2.308,2.308,0,0,1,936.622,7299.31Z" transform="translate(-923.75 -7289.75)"/>
  </g>
</svg>
