<svg id="logo" xmlns="http://www.w3.org/2000/svg" width="122" height="122" viewBox="0 0 122 122">
  <defs>
    <style>
      .cls-1 {
        fill: #374146;
        fill-rule: evenodd;
      }
    </style>
  </defs>
  <g>
    <path id="Vector" class="cls-1" d="M929.132,7204.65a3.28,3.28,0,0,1-4.493,0,3.142,3.142,0,0,1-.893-2.31,3.24,3.24,0,0,1,.893-2.31,2.989,2.989,0,0,1,2.247-.89,3.063,3.063,0,0,1,2.246.89A3.508,3.508,0,0,1,929.132,7204.65Zm-0.46-4.21a2.3,2.3,0,0,0-1.786-.74,2.446,2.446,0,0,0-1.787.74,2.82,2.82,0,0,0-.715,1.93,2.548,2.548,0,0,0,.715,1.89,2.272,2.272,0,0,0,1.787.75,2.375,2.375,0,0,0,1.786-.75,2.7,2.7,0,0,0,.715-1.89A2.829,2.829,0,0,0,928.672,7200.44Zm-1.5,2.11h-0.843v1.43h-0.766v-3.28h1.455c0.817,0,1.226.28,1.226,0.87a0.82,0.82,0,0,1-.511.8,0.614,0.614,0,0,1,.434.69v0.15a0.285,0.285,0,0,0,.051.18,0.5,0.5,0,0,0,.255.05h0.026v0.54h-0.613a0.432,0.432,0,0,1-.485-0.49v-0.64A0.229,0.229,0,0,0,927.167,7202.55Zm-0.281-1.36H926.3v0.95h0.612a0.429,0.429,0,0,0,.511-0.47C927.447,7201.34,927.268,7201.19,926.886,7201.19Z" transform="translate(-808 -7133)"/>
    <path id="Vector-2" data-name="Vector" class="cls-1" d="M881.985,7250.31a4.386,4.386,0,0,1-1.2,3.23,4.67,4.67,0,0,1-3.548,1.43,4.834,4.834,0,0,1-3.573-1.46,5.2,5.2,0,0,1,0-7.22,4.834,4.834,0,0,1,3.573-1.46,5.256,5.256,0,0,1,2.017.38,4.111,4.111,0,0,1,1.557,1.08l-0.893.89a3.242,3.242,0,0,0-1.149-.84,3.606,3.606,0,0,0-1.506-.31,3.646,3.646,0,0,0-2.681,1.1,4.115,4.115,0,0,0,0,5.54,3.864,3.864,0,0,0,5.08.28,3.231,3.231,0,0,0,1.1-2.23h-3.5v-1.15h4.671A3.864,3.864,0,0,1,881.985,7250.31Z" transform="translate(-808 -7133)"/>
    <path id="Vector-3" data-name="Vector" class="cls-1" d="M886.631,7254.77H885.38v-9.69h3.293a2.959,2.959,0,0,1,2.144.85,2.716,2.716,0,0,1,.893,2.05,2.791,2.791,0,0,1-.663,1.79,3.012,3.012,0,0,1-1.659,1l-0.026.05,2.706,3.95v0.05h-1.481l-2.578-3.97h-1.378v3.92Zm0-8.51v3.41h1.991a1.743,1.743,0,0,0,1.276-.49,1.679,1.679,0,0,0,.051-2.41,1.683,1.683,0,0,0-1.225-.51h-2.093Z" transform="translate(-808 -7133)"/>
    <path id="Vector-4" data-name="Vector" class="cls-1" d="M904.55,7249.93a4.994,4.994,0,0,1-1.429,3.61,5.011,5.011,0,0,1-7.071,0,5.287,5.287,0,0,1,0-7.23,4.777,4.777,0,0,1,3.548-1.46,4.641,4.641,0,0,1,3.523,1.49A4.931,4.931,0,0,1,904.55,7249.93Zm-8.679,0a3.818,3.818,0,0,0,1.047,2.76,3.479,3.479,0,0,0,2.654,1.11,3.427,3.427,0,0,0,2.63-1.11,4.1,4.1,0,0,0,0-5.53,3.454,3.454,0,0,0-2.63-1.1,3.545,3.545,0,0,0-2.654,1.1A3.842,3.842,0,0,0,895.871,7249.93Z" transform="translate(-808 -7133)"/>
    <path id="Vector-5" data-name="Vector" class="cls-1" d="M911.264,7255a3.364,3.364,0,0,1-2.578-1.05,3.837,3.837,0,0,1-1-2.77v-6.1h1.251v6.15a2.689,2.689,0,0,0,.613,1.87,2.2,2.2,0,0,0,1.71.7,2.163,2.163,0,0,0,1.71-.7,2.694,2.694,0,0,0,.612-1.87v-6.15h1.251v6.1a3.938,3.938,0,0,1-.97,2.79A3.44,3.44,0,0,1,911.264,7255Z" transform="translate(-808 -7133)"/>
    <path id="Vector-6" data-name="Vector" class="cls-1" d="M919.687,7250.85v3.92h-1.251v-9.69h3.293a2.963,2.963,0,0,1,2.145.85,2.716,2.716,0,0,1,.893,2.05,2.686,2.686,0,0,1-.893,2.05,3.02,3.02,0,0,1-2.145.82h-2.042Zm0-4.59v3.38h2.068a1.683,1.683,0,0,0,1.225-.51,1.658,1.658,0,0,0,.511-1.2,1.524,1.524,0,0,0-.511-1.18,1.683,1.683,0,0,0-1.225-.51h-2.068v0.02Z" transform="translate(-808 -7133)"/>
    <path id="Vector-7" data-name="Vector" class="cls-1" d="M823.224,7230.71l-9.164-16.1h-4.212v21.33h3.4v-16.46l9.7,16.46h0.587l9.674-16.58v16.58h3.4v-21.33h-4.186Z" transform="translate(-808 -7133)"/>
    <path id="Vector-8" data-name="Vector" class="cls-1" d="M891.864,7231.78l-16.975-17.17h-3.446v21.33h3.395v-17.17l16.923,17.17h3.5v-21.33h-3.395v17.17Z" transform="translate(-808 -7133)"/>
    <path id="Vector-9" data-name="Vector" class="cls-1" d="M912.106,7213.31a11.965,11.965,0,1,0,11.921,11.96A11.953,11.953,0,0,0,912.106,7213.31Zm0,20.73a8.765,8.765,0,1,1,8.73-8.77A8.744,8.744,0,0,1,912.106,7234.04Z" transform="translate(-808 -7133)"/>
    <path id="Vector-10" data-name="Vector" class="cls-1" d="M861.921,7217.2a11.5,11.5,0,1,0,0,16.1v2.61h3.395v-21.32h-3.395v2.61Zm0,9.41a8.33,8.33,0,1,1,0-2.72v2.72Z" transform="translate(-808 -7133)"/>
    <path id="Vector-11" data-name="Vector" class="cls-1" d="M866.567,7205.52a9.421,9.421,0,0,1-9.393-9.43v-53.66a9.394,9.394,0,1,1,18.787,0v53.66A9.421,9.421,0,0,1,866.567,7205.52Zm0-69.21a6.111,6.111,0,0,0-6.1,6.12v53.66a6.1,6.1,0,1,0,12.2,0v-53.66A6.11,6.11,0,0,0,866.567,7136.31Z" transform="translate(-808 -7133)"/>
    <path id="Vector-12" data-name="Vector" class="cls-1" d="M889.388,7205.52a9.421,9.421,0,0,1-9.394-9.43V7159.7a9.394,9.394,0,1,1,18.787,0v36.39A9.421,9.421,0,0,1,889.388,7205.52Zm0-51.97a6.112,6.112,0,0,0-6.1,6.13v36.38a6.1,6.1,0,1,0,12.2,0v-36.38A6.115,6.115,0,0,0,889.388,7153.55Z" transform="translate(-808 -7133)"/>
    <path id="Vector-13" data-name="Vector" class="cls-1" d="M912.234,7205.52a9.421,9.421,0,0,1-9.394-9.43V7180a9.394,9.394,0,1,1,18.787,0v16.09A9.453,9.453,0,0,1,912.234,7205.52Zm0-31.65a6.112,6.112,0,0,0-6.1,6.13v16.09a6.1,6.1,0,1,0,12.2,0V7180A6.128,6.128,0,0,0,912.234,7173.87Z" transform="translate(-808 -7133)"/>
    <path id="Vector-14" data-name="Vector" class="cls-1" d="M839.892,7205.52a13.117,13.117,0,0,1-7.811-2.59,13.451,13.451,0,0,1-20.982-7.59v-0.05l-0.23-1.02-2.629-11.56a9.439,9.439,0,0,1,7.045-11.3,9.409,9.409,0,0,1,11.257,7.07l3.625,15.87a9.9,9.9,0,0,0,1.94,4.04,10.26,10.26,0,0,0,2.3-6.48v-39.05a9.394,9.394,0,1,1,18.787,0v39.33A13.377,13.377,0,0,1,839.892,7205.52Zm-5.386-4.9a9.947,9.947,0,0,0,15.341-8.43v-39.33a6.1,6.1,0,1,0-12.2,0v39.08A13.479,13.479,0,0,1,834.506,7200.62Zm-20.242-6.07a10.194,10.194,0,0,0,15.341,6.07,13.069,13.069,0,0,1-2.706-5.53l-3.6-15.86a6.1,6.1,0,0,0-11.895,2.71l2.629,11.56Z" transform="translate(-808 -7133)"/>
  </g>
</svg>
