<svg id="icon_1b" data-name="icon 1b" xmlns="http://www.w3.org/2000/svg" width="37.47" height="37.47" viewBox="0 0 37.47 37.47">
  <defs>
    <style>
      .cls-1 {
        fill: #fff;
        fill-rule: evenodd;
      }
    </style>
  </defs>
  <path id="Vector" class="cls-1" d="M1178.49,3159.96a14.466,14.466,0,0,0,19.21,1.11l1.18,1.18-0.98.99,8.03,8.02a1,1,0,0,0-.28.99l0.44,0.44c0.71,0.71,6.31-4.89,5.6-5.6l-0.44-.44a0.981,0.981,0,0,0-.98.28l-8.03-8.03-0.99.98-1.18-1.18a14.47,14.47,0,1,0-21.58,1.26h0Zm1.7-18.76a12.06,12.06,0,1,1,0,17.05A12.047,12.047,0,0,1,1180.19,3141.2Z" transform="translate(-1174.28 -3135.28)"/>
  <path id="Vector-2" data-name="Vector" class="cls-1" d="M1178.43,3148.94a10.331,10.331,0,0,0,2.36,3.67,10.431,10.431,0,0,0,17.76-6.4A10.424,10.424,0,1,1,1178.43,3148.94Z" transform="translate(-1174.28 -3135.28)"/>
</svg>
