<svg id="icon_2b" data-name="icon 2b" xmlns="http://www.w3.org/2000/svg" width="35.969" height="36" viewBox="0 0 35.969 36">
  <defs>
    <style>
      .cls-1 {
        fill: #fff;
        fill-rule: evenodd;
      }
    </style>
  </defs>
  <path id="Vector" class="cls-1" d="M908.724,3328H895.237v4.5h2.248a4.5,4.5,0,0,1,4.5,4.5H884a4.5,4.5,0,0,1,4.5-4.5h2.248V3328H877.255a2.22,2.22,0,0,1-2.248-2.25v-22.5a2.179,2.179,0,0,1,.65-1.58,2.127,2.127,0,0,1,1.6-.67h31.469a2.283,2.283,0,0,1,2.248,2.25v22.5A2.22,2.22,0,0,1,908.724,3328Zm-2.248-22.5H879.5v18h26.973v-18Zm-24.726,15.75v-13.54h17.983Z" transform="translate(-875 -3301)"/>
</svg>
