<svg xmlns="http://www.w3.org/2000/svg" width="35.5" height="35.5" viewBox="0 0 35.5 35.5">
  <defs>
    <style>
      .cls-1 {
        fill: #fff;
        stroke: #984e43;
        stroke-width: 0.5px;
      }

      .cls-2 {
        fill: #984e43;
        fill-rule: evenodd;
        opacity: 0.55;
      }
    </style>
  </defs>
  <circle class="cls-1" cx="17.75" cy="17.75" r="17.5"/>
  <g>
    <path id="path794" class="cls-2" d="M803.2,7300.78a9.274,9.274,0,0,1-2.252.64,2.99,2.99,0,0,0,1.111-.98,4.207,4.207,0,0,0,.75-1.37,0.092,0.092,0,0,0,0-.12,0.161,0.161,0,0,0-.119.01,11.632,11.632,0,0,1-2.674,1.03,0.177,0.177,0,0,1-.185-0.05,2.131,2.131,0,0,0-.233-0.24,4.5,4.5,0,0,0-1.3-.79,4.359,4.359,0,0,0-1.986-.32,4.613,4.613,0,0,0-1.885.53,4.817,4.817,0,0,0-1.522,1.24,4.711,4.711,0,0,0-.907,1.82,4.923,4.923,0,0,0-.049,1.92c0.015,0.11.006,0.12-.091,0.11a14.283,14.283,0,0,1-9.19-4.68c-0.107-.12-0.166-0.12-0.254.01a4.652,4.652,0,0,0,.795,5.5,6.726,6.726,0,0,0,.565.5,4.5,4.5,0,0,1-1.773-.5c-0.108-.06-0.162-0.02-0.171.1a2.757,2.757,0,0,0,.029.52,4.705,4.705,0,0,0,2.9,3.76,2.439,2.439,0,0,0,.59.18,5.229,5.229,0,0,1-1.74.05c-0.127-.02-0.175.04-0.127,0.16a4.877,4.877,0,0,0,3.654,3.06c0.166,0.03.333,0.03,0.5,0.07a0.085,0.085,0,0,1-.03.03,5.716,5.716,0,0,1-2.5,1.32,9.042,9.042,0,0,1-3.79.49,0.453,0.453,0,0,0-.3,0c-0.055.03-.007,0.08,0.059,0.14a8.988,8.988,0,0,0,.789.46,12.857,12.857,0,0,0,2.533,1.02,13.505,13.505,0,0,0,13.1-3.07c2.685-2.66,3.626-6.34,3.626-10.03a0.453,0.453,0,0,1,.272-0.29,9.02,9.02,0,0,0,1.774-1.86,0.541,0.541,0,0,0,.11-0.35v-0.02C803.287,7300.72,803.294,7300.74,803.2,7300.78Z" transform="translate(-773.75 -7289.75)"/>
    <path id="path796" class="cls-2" d="M787.619,7316.85h0Z" transform="translate(-773.75 -7289.75)"/>
    <path id="path798" class="cls-2" d="M787.619,7316.85c-0.03.01-.368,0,0,0h0Z" transform="translate(-773.75 -7289.75)"/>
    <path id="path800" class="cls-2" d="M788.369,7316.87c0-.03.395,0,0,0C788.369,7316.85,788.418,7316.87,788.369,7316.87Z" transform="translate(-773.75 -7289.75)"/>
    <path id="path802" class="cls-2" d="M796.252,7298.6a0.079,0.079,0,0,1-.093,0h0.093Z" transform="translate(-773.75 -7289.75)"/>
  </g>
</svg>
